<svg width="24" height="24" viewBox="0 0 24 24" fill="none" xmlns="http://www.w3.org/2000/svg">
<path d="M13.5428 16.2C13.5428 17.0571 12.8571 17.7429 11.9999 17.7429C11.1428 17.7429 10.4571 17.0571 10.4571 16.2V12.6857C10.4571 11.8286 11.1428 11.1429 11.9999 11.1429C12.8571 11.1429 13.5428 11.8286 13.5428 12.6857V16.2ZM11.9999 9.77144C11.0571 9.77144 10.3714 9.00001 10.3714 8.14287C10.3714 7.20001 11.1428 6.51429 11.9999 6.51429C12.9428 6.51429 13.6285 7.28572 13.6285 8.14287C13.6285 9.08572 12.9428 9.77144 11.9999 9.77144ZM11.9999 1.71429C6.3428 1.71429 1.71423 6.34287 1.71423 12C1.71423 17.6571 6.3428 22.2857 11.9999 22.2857C17.6571 22.2857 22.2857 17.6571 22.2857 12C22.2857 6.34287 17.6571 1.71429 11.9999 1.71429ZM11.9999 3.77144C16.5428 3.77144 20.2285 7.45715 20.2285 12C20.2285 16.5429 16.5428 20.2286 11.9999 20.2286C7.45709 20.2286 3.77138 16.5429 3.77138 12C3.77138 7.45715 7.45709 3.77144 11.9999 3.77144Z" fill="#253B56"/>
</svg>
