<svg xmlns="http://www.w3.org/2000/svg" xmlns:xlink="http://www.w3.org/1999/xlink" viewBox="0 0 34 33">
  <defs>
    <style>
      .cls-1 {
        fill: url(#linear-gradient);
      }

      .cls-2 {
        fill: none;
        stroke: #fff;
        stroke-miterlimit: 10;
        stroke-width: 2px;
      }
    </style>
    <linearGradient id="linear-gradient" x1="-0.074" y1="1.244" x2="0.974" y2="-0.206" gradientUnits="objectBoundingBox">
      <stop offset="0" stop-color="#f9b756"/>
      <stop offset="0.511" stop-color="#c23480"/>
      <stop offset="1" stop-color="#4c68d6"/>
    </linearGradient>
  </defs>
  <g id="Group_4" data-name="Group 4" transform="translate(-41)">
    <rect id="Rectangle_Copy_4" data-name="Rectangle Copy 4" class="cls-1" width="34" height="33" rx="16.5" transform="translate(41)"/>
    <g id="Group" transform="translate(50 8)">
      <path id="Shape" class="cls-2" d="M7.788,0C5.664,0,5.428,0,4.543.057A6.95,6.95,0,0,0,2.655.4,3.4,3.4,0,0,0,1.3,1.248a3.684,3.684,0,0,0-.885,1.3A4.749,4.749,0,0,0,.059,4.368C0,5.163,0,5.446,0,7.489s0,2.269.059,3.12a6.236,6.236,0,0,0,.354,1.815,3.247,3.247,0,0,0,.885,1.3,3.863,3.863,0,0,0,1.357.851,5.289,5.289,0,0,0,1.888.34c.826.057,1.121.057,3.245.057s2.36,0,3.245-.057a6.95,6.95,0,0,0,1.888-.34,3.4,3.4,0,0,0,1.357-.851,3.684,3.684,0,0,0,.885-1.3,4.749,4.749,0,0,0,.354-1.815c.059-.851.059-1.078.059-3.12s0-2.269-.059-3.12a6.236,6.236,0,0,0-.354-1.815,3.684,3.684,0,0,0-.885-1.3A3.863,3.863,0,0,0,12.921.4a5.289,5.289,0,0,0-1.888-.34C10.148,0,9.853,0,7.788,0Z" transform="translate(0.367 0.511)"/>
      <ellipse id="Oval" class="cls-2" cx="2.596" cy="2.496" rx="2.596" ry="2.496" transform="translate(5.559 5.504)"/>
      <path id="Shape-2" data-name="Shape" class="cls-2" d="M.944,1.815A.915.915,0,0,1,0,.908.915.915,0,0,1,.944,0a.952.952,0,0,1,.944.908A.915.915,0,0,1,.944,1.815Z" transform="translate(11.342 3.064)"/>
    </g>
  </g>
</svg>
