<svg width="25" height="27" viewBox="0 0 25 27" fill="none" xmlns="http://www.w3.org/2000/svg">
<path fill-rule="evenodd" clip-rule="evenodd" d="M20.0973 16.8758C19.8017 17.3898 19.2625 17.678 18.7072 17.678C18.4366 17.678 18.1616 17.6106 17.9094 17.4659L11.6974 13.8899C11.2017 13.6008 10.8952 13.0736 10.8952 12.5008V4.27688C10.8952 3.39317 11.6137 2.67578 12.4974 2.67578C13.3832 2.67578 14.0995 3.39317 14.0995 4.27688V11.5736L19.5083 14.6867C20.2756 15.129 20.5397 16.1095 20.0973 16.8758ZM12.4989 0C5.59673 0 0 5.59891 0 12.5C0 19.4022 5.59673 25.0022 12.4989 25.0022C19.4033 25.0022 25 19.4022 25 12.5C25 5.59891 19.4033 0 12.4989 0Z" fill="#0046E4"/>
</svg>
