<svg xmlns="http://www.w3.org/2000/svg" xmlns:xlink="http://www.w3.org/1999/xlink" viewBox="0 0 34 33">
  <defs>
    <style>
      .cls-1 {
        fill: url(#linear-gradient);
      }

      .cls-2 {
        fill: #fff;
      }
    </style>
    <linearGradient id="linear-gradient" y1="0.915" x2="1.022" y2="0.191" gradientUnits="objectBoundingBox">
      <stop offset="0" stop-color="#4ddbff"/>
      <stop offset="1" stop-color="#23bbf9"/>
    </linearGradient>
  </defs>
  <g id="Group_5" data-name="Group 5" transform="translate(-86)">
    <rect id="Rectangle_Copy_5" data-name="Rectangle Copy 5" class="cls-1" width="34" height="33" rx="16.5" transform="translate(86)"/>
    <path id="Shape" class="cls-2" d="M15,1.333a8.849,8.849,0,0,1-1.765.513A3.417,3.417,0,0,0,14.585.205a6.476,6.476,0,0,1-1.972.718A2.916,2.916,0,0,0,10.329,0,3.1,3.1,0,0,0,7.215,3.077a1.726,1.726,0,0,0,.1.718A8.9,8.9,0,0,1,1.09.513,2.45,2.45,0,0,0,.675,2.051,3.2,3.2,0,0,0,2.024,4.615a2.1,2.1,0,0,1-1.349-.41A3.074,3.074,0,0,0,3.166,7.179a2.907,2.907,0,0,1-.934.1,1.331,1.331,0,0,1-.623-.1A3.256,3.256,0,0,0,4.516,9.333,6.214,6.214,0,0,1,.675,10.667H0A9.246,9.246,0,0,0,4.775,12,8.673,8.673,0,0,0,13.6,3.282v-.41A7.872,7.872,0,0,0,15,1.333" transform="translate(96 11)"/>
  </g>
</svg>
