<svg xmlns="http://www.w3.org/2000/svg" viewBox="0 0 34 33">
  <defs>
    <style>
      .cls-1 {
        fill: #ff0f0f;
      }

      .cls-2 {
        fill: #fff;
      }
    </style>
  </defs>
  <g id="Group_7" data-name="Group 7" transform="translate(-170)">
    <rect id="Rectangle_Copy_7" data-name="Rectangle Copy 7" class="cls-1" width="34" height="33" rx="16.5" transform="translate(170)"/>
    <path id="Shape" class="cls-2" d="M8.5,12A36.429,36.429,0,0,1,1.871,11.5,2.414,2.414,0,0,1,.428,10.129,14.156,14.156,0,0,1,0,6,15.109,15.109,0,0,1,.428,1.872,2.412,2.412,0,0,1,1.871.5,31.734,31.734,0,0,1,8.554,0,31.31,31.31,0,0,1,15.182.5a2.41,2.41,0,0,1,1.444,1.377A15.121,15.121,0,0,1,17,6a15.109,15.109,0,0,1-.427,4.128A2.584,2.584,0,0,1,15.129,11.5C14.36,11.87,11.077,12,8.5,12ZM6.679,1.895V8.843L12.75,5.611Z" transform="translate(178 11)"/>
  </g>
</svg>
